<svg width="15" height="24" viewBox="0 0 15 24" fill="none" xmlns="http://www.w3.org/2000/svg">
<path d="M1.59453 0.0955647C1.38818 0.175291 1.23341 0.301915 0.792574 0.738065C0.117245 1.4087 0.0281387 1.56816 0.0234489 2.07934C0.0234489 2.35135 0.0468979 2.50611 0.112555 2.64212C0.173522 2.76874 1.67425 4.30699 4.77889 7.41632L9.35613 11.9982L4.7742 16.5849C1.20997 20.1491 0.168832 21.2137 0.0984855 21.3778C0.0328285 21.5185 0 21.692 0 21.8937C0 22.3767 0.136004 22.6112 0.787884 23.2584C1.24748 23.7133 1.38349 23.8165 1.6086 23.9009C1.95095 24.0322 2.22296 24.0322 2.56531 23.9056C2.82794 23.8118 3.07181 23.5726 8.33375 18.3107C14.4164 12.2327 14.0694 12.6173 14.0694 11.9982C14.0694 11.3792 14.4164 11.7638 8.33375 5.68579C3.06712 0.419159 2.82794 0.184671 2.56531 0.0908749C2.22765 -0.0310595 1.9275 -0.0310595 1.59453 0.0955647Z" fill="#00529D"/>
</svg>
